<svg xmlns="http://www.w3.org/2000/svg" width="756" height="752" viewBox="0 0 756 752" version="1.1"><path d="M 356.500 55.609 C 276.881 61.866, 206.050 94.057, 151.002 149 C 97.838 202.064, 65.476 270.582, 58.025 345.856 C 56.706 359.184, 56.706 392.816, 58.025 406.144 C 68.193 508.866, 124.973 598.712, 213.264 651.786 C 318.434 715.007, 452.512 711.756, 555.011 643.500 C 676.176 562.815, 728.038 411.937, 681.969 274.151 C 655.116 193.833, 597.152 127.172, 521.135 89.184 C 487.449 72.350, 454.934 62.488, 416.500 57.447 C 405.040 55.944, 367.046 54.780, 356.500 55.609 M 345 61.078 C 270.832 69.181, 204.257 101.323, 152.305 154.109 C 127.616 179.195, 109.225 204.909, 94.092 235.500 C 60.217 303.976, 52.148 380.517, 71.003 454.500 C 100.987 572.152, 196.136 662.574, 315.086 686.457 C 336.733 690.803, 352.533 692.276, 377.500 692.276 C 403.101 692.276, 418.387 690.796, 442.010 686.030 C 526.455 668.994, 601.911 615.923, 647.647 541.399 C 655.725 528.237, 669.478 500.168, 674.461 486.673 C 683.172 463.085, 689.791 434.333, 692.573 408 C 694.545 389.333, 694.015 351.982, 691.525 334.121 C 681.885 264.977, 650.718 201.909, 602 152.961 C 553.427 104.160, 492.989 73.632, 423.531 62.814 C 413.254 61.214, 404.476 60.718, 382 60.467 C 366.325 60.292, 349.675 60.567, 345 61.078 M 360 84.576 C 358.075 84.799, 351.550 85.472, 345.500 86.072 C 281.781 92.395, 218.802 122.548, 172.067 169.111 C 127.147 213.864, 99.104 268.985, 88.938 332.500 C 86.247 349.316, 85.238 384.564, 86.930 402.658 C 93.315 470.950, 122.725 533.700, 170.993 582.020 C 216.945 628.020, 272.793 655.741, 339.500 665.659 C 358.066 668.419, 399.534 668.146, 419 665.136 C 455.180 659.541, 489.385 648.090, 518.490 631.829 C 648.009 559.466, 703.385 404.234, 648.485 267.419 C 609.068 169.187, 520.299 100.577, 414.386 86.482 C 403.043 84.973, 367.386 83.723, 360 84.576 M 350.500 89.043 C 296.077 94.537, 246.891 113.700, 204 146.120 C 147.994 188.453, 110.057 248.245, 95.520 317.094 C 87.846 353.441, 87.681 396.519, 95.073 433.500 C 108.630 501.328, 147.868 563.748, 203.368 605.779 C 218.709 617.397, 231.862 625.389, 251.500 635.025 C 278.462 648.255, 304.033 656.379, 333.500 661.076 C 350.314 663.756, 386.514 664.769, 404.619 663.067 C 461.299 657.738, 513.472 636.546, 559 600.360 C 570.736 591.032, 593.029 568.576, 602.823 556.216 C 636.610 513.578, 657.114 464.507, 664.127 409.500 C 666.056 394.371, 665.772 355.357, 663.618 339.500 C 652.895 260.582, 613.280 192.633, 550.505 145.482 C 528.865 129.229, 501.102 114.141, 476 104.994 C 460.747 99.436, 437.550 93.587, 420.407 90.976 C 404.536 88.560, 365.880 87.491, 350.500 89.043 M 306.332 115.989 C 302.390 117.022, 297.628 118.685, 295.750 119.684 L 292.337 121.500 299.345 147.500 C 303.200 161.800, 306.453 173.642, 306.575 173.814 C 306.934 174.326, 313.514 172.918, 314.970 172.019 C 316.060 171.345, 315.785 169.210, 313.499 160.585 C 311.953 154.751, 310.961 149.706, 311.295 149.372 C 312.524 148.143, 320.773 147.808, 322.822 148.905 C 323.985 149.527, 326.140 152.166, 327.609 154.768 C 334.467 166.912, 334.523 166.968, 338.717 165.836 C 340.798 165.274, 342.878 164.455, 343.340 164.017 C 343.802 163.578, 342.083 159.584, 339.520 155.139 C 334.845 147.034, 330.170 142, 327.320 142 C 326.243 142, 326.694 140.974, 328.847 138.521 C 332.991 133.802, 333.779 129.004, 331.376 123.127 C 329.873 119.452, 328.568 118.037, 325.030 116.250 C 319.689 113.552, 315.836 113.498, 306.332 115.989 M 360.275 121.928 C 351.926 124.023, 346.969 130.701, 346.244 140.831 C 345.637 149.320, 347.985 155.361, 353.538 159.597 C 356.748 162.045, 358.424 162.533, 364.720 162.851 C 371.415 163.189, 380.536 161.690, 381.379 160.113 C 381.559 159.776, 381.327 158.106, 380.864 156.401 L 380.021 153.303 374.383 154.739 C 371.117 155.571, 367.263 155.897, 365.222 155.514 C 361.507 154.817, 356 150.155, 356 147.708 C 356 146.001, 360.834 145.032, 369.500 145 C 372.800 144.988, 377.188 144.699, 379.250 144.358 C 382.473 143.825, 382.999 143.370, 382.994 141.119 C 382.986 137.153, 381.008 130.831, 378.808 127.735 C 375.254 122.735, 367.162 120.200, 360.275 121.928 M 309 123.132 C 307.075 123.696, 305.144 124.500, 304.709 124.919 C 304.071 125.534, 307.479 140.674, 308.512 141.816 C 308.669 141.989, 310.756 141.613, 313.149 140.979 C 322.114 138.604, 325.747 131.233, 320.750 125.555 C 318.118 122.563, 313.909 121.696, 309 123.132 M 391.287 149.741 C 389.011 164.998, 387.264 177.597, 387.406 177.739 C 387.548 177.881, 389.756 178.388, 392.312 178.866 L 396.959 179.734 397.480 176.617 C 398.515 170.428, 399.985 160.481, 399.992 159.615 C 399.997 159.128, 400.907 159.883, 402.016 161.293 C 406.124 166.516, 416.417 167.378, 423.370 163.080 C 428.662 159.810, 432.418 151.476, 432.389 143.069 C 432.364 135.633, 430.695 131.604, 426.006 127.659 C 420.676 123.173, 411.913 122.921, 406.601 127.099 L 404 129.145 404 126.198 C 404 123.696, 403.527 123.155, 400.875 122.625 C 399.156 122.281, 397.227 122, 396.588 122 C 395.834 122, 393.977 131.717, 391.287 149.741 M 361 129.273 C 358.718 130.408, 354.225 137.559, 355.189 138.523 C 355.414 138.747, 359.513 138.655, 364.299 138.317 C 372.013 137.773, 373 137.484, 373 135.775 C 373 133.321, 367.733 127.995, 365.327 128.015 C 364.322 128.023, 362.375 128.589, 361 129.273 M 406.716 134.009 C 404.113 136.056, 402 142.830, 402 149.126 C 402 152.995, 406.778 158, 410.473 158 C 417.389 158, 422 152.070, 422 143.176 C 422 136.331, 418.530 132, 413.046 132 C 410.778 132, 408.249 132.803, 406.716 134.009 M 441.728 151.537 L 435.182 170.874 439.761 172.434 C 442.279 173.292, 444.481 173.852, 444.655 173.679 C 444.828 173.505, 446.890 168.019, 449.237 161.487 C 452.978 151.074, 453.915 149.370, 456.837 147.663 C 459.624 146.036, 460.739 145.891, 463.639 146.781 C 466.889 147.779, 467.171 147.682, 468.098 145.243 C 470.273 139.520, 469.860 138.526, 465.168 138.189 C 462.457 137.994, 459.945 138.461, 458.454 139.439 C 455.196 141.573, 454.955 141.456, 455.246 137.876 C 455.472 135.102, 455.095 134.609, 451.887 133.476 L 448.273 132.199 441.728 151.537 M 480.176 149.138 C 478.348 149.665, 474.883 152.065, 472.476 154.471 C 467.354 159.594, 464.382 167.808, 465.472 173.834 C 467.015 182.372, 474.925 189.303, 484.500 190.508 C 488.757 191.043, 490.318 190.718, 495 188.318 C 509.198 181.043, 511.450 160.858, 498.984 152.608 C 492.643 148.412, 486.580 147.293, 480.176 149.138 M 259.137 152.369 C 253.811 154.297, 248.200 159.599, 246.902 163.933 C 245.911 167.240, 246.016 168.365, 247.621 171.644 C 250.306 177.131, 252.991 178.219, 262.162 177.537 C 268.365 177.076, 270.127 177.270, 271.412 178.555 C 273.252 180.395, 273.371 181.438, 272.029 183.945 C 270.965 185.935, 264.188 189, 260.855 189 C 259.018 189, 258.832 189.409, 259.394 192.219 C 259.748 193.989, 260.393 195.793, 260.828 196.228 C 262.053 197.453, 270.689 194.475, 274.630 191.468 C 281.486 186.239, 283.584 179.965, 280.483 173.967 C 277.971 169.110, 273.979 167.705, 264.957 168.504 C 257.710 169.145, 257.096 169.048, 256.052 167.096 C 254.344 163.905, 256.306 161.329, 261.980 159.314 C 266.477 157.716, 266.872 157.327, 266.325 155.028 C 265.233 150.438, 264.857 150.299, 259.137 152.369 M 485.445 156.959 C 482.398 158.193, 477.381 164.317, 476.007 168.479 C 471.684 181.577, 484.978 187.927, 493.325 176.751 C 499.031 169.111, 498.871 160.536, 492.966 157.483 C 489.775 155.832, 488.455 155.740, 485.445 156.959 M 216.655 170.385 C 213.763 174.177, 213.739 176.709, 216.572 179.060 C 217.881 180.146, 217.807 180.577, 215.975 182.527 L 213.883 184.753 216.347 187.617 C 218.748 190.409, 218.862 190.435, 220.825 188.658 C 222.805 186.866, 222.947 186.968, 229.170 194.663 C 239.635 207.604, 242.232 209.443, 248.387 208.266 C 251.225 207.724, 258.009 202.355, 257.978 200.677 C 257.966 200.030, 257.134 198.432, 256.131 197.127 C 254.366 194.833, 254.219 194.810, 251.711 196.454 C 247.353 199.309, 245.085 198.114, 237.703 189.075 L 230.822 180.649 234.661 177.390 L 238.500 174.131 235.777 171.365 L 233.055 168.600 230.777 170.651 C 226.631 174.386, 226.034 174.372, 222.657 170.466 L 219.436 166.740 216.655 170.385 M 550.946 182.710 C 543.760 190.977, 543.488 191.176, 543.167 188.388 C 542.746 184.744, 538.777 179.453, 534.998 177.499 C 531.187 175.528, 522.720 175.587, 518.700 177.612 C 507.589 183.208, 501.646 195.890, 505.768 205.208 C 508.445 211.261, 513.138 214.495, 519.247 214.498 C 521.858 214.499, 523.995 214.690, 523.997 214.921 C 523.999 215.153, 523.239 216.183, 522.309 217.211 C 520.705 218.983, 520.783 219.244, 523.805 222.266 C 526.968 225.430, 527.005 225.439, 528.868 223.476 C 532.944 219.185, 566 181.021, 566 180.608 C 566 180.366, 564.288 178.812, 562.196 177.155 L 558.393 174.143 550.946 182.710 M 189.215 182.278 L 186.038 185.556 206.797 206.297 L 227.556 227.039 231.317 223.188 L 235.078 219.336 214.150 199.168 C 202.640 188.076, 193.036 179, 192.807 179 C 192.579 179, 190.963 180.475, 189.215 182.278 M 521.839 187.463 C 517.230 190.595, 513.579 197.808, 514.494 201.974 C 515.731 207.605, 522.863 210.749, 528.074 207.961 C 529.142 207.389, 531.812 204.649, 534.008 201.871 C 538.947 195.622, 539.220 192.066, 535.077 187.923 C 531.371 184.217, 526.847 184.060, 521.839 187.463 M 552.377 216.446 C 540.650 225.309, 537 229.693, 537 234.918 C 537 241.717, 543.733 249, 550.019 249 L 553.349 249 551.031 251.467 L 548.713 253.935 551.344 257.384 L 553.975 260.834 569.987 248.825 C 578.794 242.221, 585.988 236.521, 585.973 236.158 C 585.958 235.796, 584.671 233.962, 583.112 232.083 L 580.279 228.665 576.889 231.039 C 575.025 232.344, 570.190 235.884, 566.145 238.906 C 557.350 245.476, 553.243 246.146, 549.370 241.644 C 544.762 236.286, 546.706 233.178, 561.308 222.558 L 570.853 215.616 568.177 211.829 C 566.705 209.747, 565.050 208.042, 564.500 208.042 C 563.950 208.042, 558.495 211.824, 552.377 216.446 M 185.340 213.620 L 182.579 217.241 185.133 219.370 C 186.537 220.542, 191.568 224.291, 196.312 227.703 C 205.219 234.108, 206.840 236.516, 205.593 241.487 C 204.724 244.950, 200.781 247.331, 197.215 246.547 C 195.638 246.201, 189.658 242.543, 183.924 238.419 L 173.500 230.921 170.750 234.173 C 169.238 235.961, 168 237.934, 168 238.556 C 168 239.677, 184.477 251.916, 190.418 255.208 C 194.190 257.299, 201.157 257.487, 204.810 255.598 C 209.055 253.403, 212.339 246.700, 211.746 241.442 L 211.255 237.080 213.916 238.456 C 216.456 239.770, 216.687 239.671, 219.015 236.273 L 221.454 232.713 219.013 231.107 C 217.670 230.223, 210.426 225.113, 202.915 219.750 C 195.404 214.387, 188.998 210, 188.680 210 C 188.362 210, 186.859 211.629, 185.340 213.620 M 158.760 255.729 C 152.615 262.145, 151.106 272.596, 155.560 277.889 C 158.270 281.110, 163.257 282.688, 166.985 281.505 C 168.172 281.128, 171.627 278.797, 174.663 276.324 C 180.591 271.496, 184.243 271.041, 185.493 274.976 C 186.263 277.404, 183.724 282.972, 180.438 286.058 L 177.989 288.359 180.169 290.680 C 183.107 293.807, 184.294 293.614, 187.433 289.500 C 191.280 284.456, 193 279.745, 193 274.255 C 193 268.818, 191.260 265.703, 186.989 263.494 C 181.257 260.530, 177.760 261.581, 169.747 268.677 C 165.503 272.435, 162.555 272.905, 161.035 270.065 C 159.778 267.716, 161.144 263.556, 164.267 260.223 L 166.400 257.945 163.907 255.452 L 161.414 252.959 158.760 255.729 M 574.459 257.367 C 560.645 263.800, 558.241 278.532, 568.826 291.890 C 570.712 294.270, 570.730 294.272, 573.860 292.424 C 577.207 290.446, 577.671 289.533, 575.887 288.430 C 575.274 288.052, 573.883 285.729, 572.795 283.269 C 570.176 277.348, 570.993 273.091, 575.510 269.126 C 583.918 261.743, 595.622 265.140, 597.572 275.529 C 598.120 278.455, 598.637 278.998, 600.861 278.985 C 605.454 278.958, 606.295 277.808, 605.064 273.236 C 603.372 266.954, 598.087 259.921, 593.093 257.307 C 587.342 254.297, 581.008 254.317, 574.459 257.367 M 147.500 292.349 C 139.228 296.147, 135.717 307.377, 139.913 316.616 C 144.189 326.032, 158.684 331.666, 168.298 327.649 C 175.555 324.617, 181 314.402, 181 303.818 L 181 299 177.500 299 C 174.328 299, 174 299.264, 174 301.818 C 174 306.493, 171.184 314.478, 168.720 316.793 C 167.446 317.990, 164.963 319.257, 163.202 319.610 C 159.105 320.429, 159.099 319.871, 163.057 305.106 C 165.234 296.985, 165.803 293.403, 165.038 292.638 C 163.363 290.963, 150.964 290.759, 147.500 292.349 M 588.764 291.996 C 575.686 295.933, 571.139 309.153, 577.896 323.591 C 579.545 327.116, 581.122 330, 581.400 330 C 582.599 330, 587 327.616, 587 326.967 C 587 326.575, 586.137 324.285, 585.082 321.877 C 583.226 317.641, 582.536 313.780, 582.849 309.386 C 583.020 306.985, 587.800 301.767, 589.354 302.285 C 589.917 302.472, 591.846 308.163, 593.640 314.930 C 595.434 321.698, 597.103 327.437, 597.350 327.683 C 598.195 328.528, 605.698 326.005, 609.045 323.749 C 613.778 320.559, 616.391 315.621, 616.307 310.027 C 616.233 305.146, 613.513 298.675, 610.320 295.788 C 605.650 291.565, 595.894 289.849, 588.764 291.996 M 147.073 302.635 C 145.933 304.084, 145 306.525, 145 308.058 C 145 311.033, 149.316 317, 151.467 317 C 152.228 317, 153.439 314.233, 154.422 310.250 C 155.338 306.538, 156.323 302.712, 156.611 301.750 C 157.049 300.288, 156.477 300, 153.140 300 C 150.015 300, 148.694 300.574, 147.073 302.635 M 597.197 301.096 C 597.488 301.868, 598.562 305.762, 599.584 309.750 C 600.607 313.738, 601.958 317, 602.587 317 C 603.216 317, 604.916 316.067, 606.365 314.927 C 609.559 312.415, 609.998 306.454, 607.240 303.048 C 605.124 300.435, 596.302 298.721, 597.197 301.096 M 594.764 335.996 C 586.985 338.338, 581 345.560, 581 352.604 C 581 356.037, 584.298 363.028, 586.499 364.259 C 588.809 365.552, 588.281 367, 585.500 367 C 583.197 367, 583 367.361, 583 371.585 L 583 376.171 590.250 375.565 C 599.244 374.814, 633.167 373.001, 638.250 373.001 L 642 373 642 367.847 L 642 362.694 630.454 363.313 L 618.909 363.932 620.954 361.331 C 623.415 358.203, 623.766 349.372, 621.595 345.200 C 617.283 336.912, 605.334 332.813, 594.764 335.996 M 123.420 337.886 C 118.133 341.110, 116.544 345.885, 116.170 359.668 L 115.840 371.836 121.170 372.393 C 127.515 373.056, 170.264 375.089, 170.547 374.742 C 170.655 374.609, 171.047 372.408, 171.418 369.852 L 172.092 365.203 160.431 364.474 L 148.770 363.746 149.256 358.686 C 149.855 352.452, 151.910 350.558, 159.781 348.988 C 173.433 346.265, 173 346.527, 173 340.961 C 173 338.233, 172.770 336, 172.489 336 C 172.209 336, 167.891 336.911, 162.894 338.024 C 153.070 340.212, 148.613 342.082, 147.199 344.609 C 146.449 345.949, 145.923 345.611, 144.053 342.585 C 142.817 340.587, 140.523 338.287, 138.953 337.476 C 134.934 335.397, 127.164 335.602, 123.420 337.886 M 596.500 346.347 C 589.471 349.580, 587.474 356.929, 592.311 361.766 C 597.225 366.680, 610.071 365.515, 614.336 359.769 C 616.023 357.495, 616.206 356.424, 615.431 353.365 C 614.910 351.311, 613.321 348.817, 611.824 347.706 C 608.454 345.205, 600.515 344.501, 596.500 346.347 M 126.099 348.601 C 123.880 351.422, 122.628 356.335, 123.163 360.119 C 123.485 362.392, 123.893 362.513, 132.198 362.788 L 140.895 363.076 141.547 359.603 C 142.361 355.261, 140.524 349.480, 137.701 347.503 C 134.168 345.028, 128.487 345.566, 126.099 348.601" stroke="none" fill="#f2f4f6" fill-rule="evenodd"/><path d="M 323 25.008 C 315.025 38.205, 308.050 48.833, 307.500 48.624 C 306.950 48.416, 296.683 41.414, 284.684 33.066 C 272.686 24.717, 262.336 17.687, 261.684 17.443 C 260.916 17.155, 257.375 26.051, 251.611 42.750 C 246.722 56.912, 242.447 69.027, 242.111 69.671 C 241.695 70.467, 233.181 67.348, 215.500 59.923 C 201.200 53.918, 189.258 49.004, 188.963 49.002 C 188.668 49.001, 186.916 61.488, 185.071 76.750 C 183.225 92.013, 181.442 104.793, 181.107 105.151 C 180.773 105.509, 168.125 103.447, 153 100.569 C 128.665 95.939, 125.466 95.525, 125.205 96.977 C 125.043 97.880, 125.831 109.350, 126.955 122.468 C 128.080 135.585, 129 147.749, 129 149.498 L 129 152.678 100.845 153.327 C 85.360 153.684, 72.533 154.133, 72.341 154.326 C 72.148 154.518, 75.618 166.739, 80.051 181.483 C 84.483 196.227, 87.748 208.597, 87.305 208.972 C 86.862 209.347, 81.100 210.893, 74.500 212.407 C 44.628 219.260, 33 222.234, 33 223.023 C 33 223.491, 38.874 234.549, 46.053 247.597 C 53.232 260.644, 59.195 271.695, 59.303 272.154 C 59.411 272.613, 48.033 278.421, 34.017 285.060 C 20.002 291.700, 8.399 297.267, 8.234 297.432 C 8.069 297.597, 16.265 307.355, 26.448 319.116 C 36.630 330.877, 44.970 340.734, 44.981 341.019 C 44.991 341.305, 34.899 349.180, 22.552 358.519 C 10.206 367.859, 0.084 375.725, 0.060 376 C 0.036 376.275, 10.121 384.150, 22.472 393.500 C 34.824 402.850, 44.945 410.729, 44.965 411.008 C 44.984 411.287, 36.684 421.173, 26.519 432.977 C 16.355 444.781, 8.368 454.713, 8.769 455.048 C 9.171 455.382, 20.859 460.991, 34.742 467.512 L 59.983 479.368 57.146 484.434 C 44.075 507.772, 32.828 529.161, 33.352 529.686 C 33.701 530.035, 45.967 533.150, 60.609 536.609 C 75.251 540.067, 87.437 543.104, 87.691 543.357 C 87.944 543.610, 84.534 555.876, 80.114 570.614 C 75.694 585.353, 72.315 597.649, 72.605 597.939 C 72.896 598.229, 85.442 598.699, 100.486 598.983 C 115.530 599.267, 128.170 599.832, 128.574 600.238 C 128.978 600.643, 128.285 613.376, 127.033 628.533 C 125.782 643.690, 124.945 656.278, 125.173 656.506 C 125.401 656.735, 138.039 654.547, 153.257 651.644 C 171.329 648.197, 181.067 646.737, 181.330 647.433 C 181.552 648.020, 183.242 660.763, 185.085 675.750 C 186.929 690.738, 188.782 703, 189.202 703 C 189.623 703, 201.635 698.112, 215.895 692.139 L 241.822 681.277 251.140 708.139 C 256.266 722.912, 260.802 735, 261.220 735 C 261.639 735, 272.425 727.731, 285.190 718.847 C 297.954 709.962, 308.546 703.100, 308.728 703.597 C 309.650 706.118, 337.917 751.469, 338.453 751.287 C 338.911 751.131, 371.607 716.682, 376.921 710.756 C 377.289 710.346, 386.261 719.234, 396.860 730.506 C 407.459 741.777, 416.517 751, 416.990 751 C 417.462 751, 423.933 740.987, 431.370 728.750 C 438.806 716.513, 445.478 705.734, 446.195 704.799 C 447.375 703.260, 449.690 704.621, 470.432 719.049 C 483.045 727.822, 493.676 735, 494.056 735 C 494.437 735, 498.706 723.638, 503.543 709.750 C 508.381 695.863, 512.600 683.776, 512.919 682.891 C 513.405 681.545, 517.789 683.079, 539.769 692.289 C 554.217 698.343, 566.205 703.117, 566.409 702.898 C 566.613 702.679, 568.183 691.475, 569.898 678 C 571.614 664.525, 573.264 651.893, 573.566 649.929 L 574.115 646.359 601.802 651.602 C 617.030 654.485, 629.699 656.635, 629.955 656.378 C 630.212 656.121, 629.407 643.501, 628.167 628.333 C 626.926 613.165, 626.193 600.473, 626.537 600.128 C 626.881 599.782, 639.478 599.261, 654.529 598.969 C 669.581 598.677, 682.178 598.155, 682.523 597.810 C 682.868 597.465, 679.534 585.124, 675.114 570.386 C 670.694 555.647, 667.211 543.455, 667.375 543.292 C 667.538 543.129, 679.948 540.094, 694.952 536.548 C 709.957 533.001, 722.374 529.960, 722.545 529.788 C 722.717 529.617, 716.665 518.189, 709.098 504.394 L 695.340 479.311 720.420 467.553 C 734.214 461.086, 745.868 455.451, 746.317 455.031 C 746.766 454.611, 738.825 444.644, 728.670 432.883 C 718.514 421.122, 710.413 411.159, 710.667 410.741 C 710.921 410.324, 721.011 402.484, 733.090 393.319 C 745.169 384.154, 754.928 376.324, 754.776 375.921 C 754.624 375.517, 744.600 367.667, 732.500 358.477 C 720.400 349.287, 710.342 341.624, 710.148 341.448 C 709.954 341.273, 718.216 331.399, 728.506 319.506 C 738.797 307.613, 747.019 297.686, 746.778 297.445 C 746.537 297.203, 735.351 291.798, 721.920 285.433 C 708.489 279.068, 697.113 273.482, 696.640 273.021 C 696.166 272.557, 701.877 261.045, 709.378 247.340 C 716.856 233.678, 722.552 222.357, 722.035 222.182 C 721.518 222.008, 709.145 219.042, 694.541 215.593 C 679.936 212.143, 667.797 209.130, 667.564 208.897 C 667.331 208.664, 670.761 196.419, 675.186 181.686 C 679.611 166.952, 683.024 154.691, 682.770 154.437 C 682.517 154.183, 669.640 153.684, 654.155 153.327 C 628.709 152.741, 626 152.517, 626 150.998 C 626 150.074, 626.921 138.571, 628.047 125.437 C 629.173 112.303, 629.961 100.174, 629.797 98.483 L 629.500 95.410 602 100.608 C 586.875 103.467, 574.368 105.681, 574.207 105.527 C 574.047 105.374, 572.309 92.705, 570.346 77.374 C 568.383 62.043, 566.650 49.360, 566.494 49.189 C 566.338 49.018, 554.368 53.835, 539.893 59.893 C 525.419 65.952, 513.514 70.817, 513.437 70.705 C 513.361 70.592, 509.152 58.582, 504.083 44.016 C 499.014 29.450, 494.693 17.359, 494.481 17.147 C 494.269 16.936, 483.660 24.002, 470.905 32.852 C 458.150 41.701, 447.407 48.751, 447.031 48.519 C 446.656 48.287, 439.905 37.500, 432.030 24.549 C 424.154 11.597, 417.380 1, 416.975 1 C 416.571 1, 407.563 10.257, 396.958 21.571 L 377.676 42.142 374.492 38.821 C 372.741 36.994, 363.991 27.738, 355.049 18.250 C 346.106 8.762, 338.499 1.003, 338.145 1.006 C 337.790 1.009, 330.975 11.810, 323 25.008 M 356.500 55.609 C 276.881 61.866, 206.050 94.057, 151.002 149 C 97.838 202.064, 65.476 270.582, 58.025 345.856 C 56.706 359.184, 56.706 392.816, 58.025 406.144 C 68.193 508.866, 124.973 598.712, 213.264 651.786 C 318.434 715.007, 452.512 711.756, 555.011 643.500 C 676.176 562.815, 728.038 411.937, 681.969 274.151 C 655.116 193.833, 597.152 127.172, 521.135 89.184 C 487.449 72.350, 454.934 62.488, 416.500 57.447 C 405.040 55.944, 367.046 54.780, 356.500 55.609 M 345 61.078 C 270.832 69.181, 204.257 101.323, 152.305 154.109 C 127.616 179.195, 109.225 204.909, 94.092 235.500 C 60.217 303.976, 52.148 380.517, 71.003 454.500 C 100.987 572.152, 196.136 662.574, 315.086 686.457 C 336.733 690.803, 352.533 692.276, 377.500 692.276 C 403.101 692.276, 418.387 690.796, 442.010 686.030 C 526.455 668.994, 601.911 615.923, 647.647 541.399 C 655.725 528.237, 669.478 500.168, 674.461 486.673 C 683.172 463.085, 689.791 434.333, 692.573 408 C 694.545 389.333, 694.015 351.982, 691.525 334.121 C 681.885 264.977, 650.718 201.909, 602 152.961 C 553.427 104.160, 492.989 73.632, 423.531 62.814 C 413.254 61.214, 404.476 60.718, 382 60.467 C 366.325 60.292, 349.675 60.567, 345 61.078 M 360 84.576 C 358.075 84.799, 351.550 85.472, 345.500 86.072 C 281.781 92.395, 218.802 122.548, 172.067 169.111 C 127.147 213.864, 99.104 268.985, 88.938 332.500 C 86.247 349.316, 85.238 384.564, 86.930 402.658 C 93.315 470.950, 122.725 533.700, 170.993 582.020 C 216.945 628.020, 272.793 655.741, 339.500 665.659 C 358.066 668.419, 399.534 668.146, 419 665.136 C 455.180 659.541, 489.385 648.090, 518.490 631.829 C 648.009 559.466, 703.385 404.234, 648.485 267.419 C 609.068 169.187, 520.299 100.577, 414.386 86.482 C 403.043 84.973, 367.386 83.723, 360 84.576 M 350.500 89.043 C 296.077 94.537, 246.891 113.700, 204 146.120 C 147.994 188.453, 110.057 248.245, 95.520 317.094 C 87.846 353.441, 87.681 396.519, 95.073 433.500 C 108.630 501.328, 147.868 563.748, 203.368 605.779 C 218.709 617.397, 231.862 625.389, 251.500 635.025 C 278.462 648.255, 304.033 656.379, 333.500 661.076 C 350.314 663.756, 386.514 664.769, 404.619 663.067 C 461.299 657.738, 513.472 636.546, 559 600.360 C 570.736 591.032, 593.029 568.576, 602.823 556.216 C 636.610 513.578, 657.114 464.507, 664.127 409.500 C 666.056 394.371, 665.772 355.357, 663.618 339.500 C 652.895 260.582, 613.280 192.633, 550.505 145.482 C 528.865 129.229, 501.102 114.141, 476 104.994 C 460.747 99.436, 437.550 93.587, 420.407 90.976 C 404.536 88.560, 365.880 87.491, 350.500 89.043 M 306.332 115.989 C 302.390 117.022, 297.628 118.685, 295.750 119.684 L 292.337 121.500 299.345 147.500 C 303.200 161.800, 306.453 173.642, 306.575 173.814 C 306.934 174.326, 313.514 172.918, 314.970 172.019 C 316.060 171.345, 315.785 169.210, 313.499 160.585 C 311.953 154.751, 310.961 149.706, 311.295 149.372 C 312.524 148.143, 320.773 147.808, 322.822 148.905 C 323.985 149.527, 326.140 152.166, 327.609 154.768 C 334.467 166.912, 334.523 166.968, 338.717 165.836 C 340.798 165.274, 342.878 164.455, 343.340 164.017 C 343.802 163.578, 342.083 159.584, 339.520 155.139 C 334.845 147.034, 330.170 142, 327.320 142 C 326.243 142, 326.694 140.974, 328.847 138.521 C 332.991 133.802, 333.779 129.004, 331.376 123.127 C 329.873 119.452, 328.568 118.037, 325.030 116.250 C 319.689 113.552, 315.836 113.498, 306.332 115.989 M 360.275 121.928 C 351.926 124.023, 346.969 130.701, 346.244 140.831 C 345.637 149.320, 347.985 155.361, 353.538 159.597 C 356.748 162.045, 358.424 162.533, 364.720 162.851 C 371.415 163.189, 380.536 161.690, 381.379 160.113 C 381.559 159.776, 381.327 158.106, 380.864 156.401 L 380.021 153.303 374.383 154.739 C 371.117 155.571, 367.263 155.897, 365.222 155.514 C 361.507 154.817, 356 150.155, 356 147.708 C 356 146.001, 360.834 145.032, 369.500 145 C 372.800 144.988, 377.188 144.699, 379.250 144.358 C 382.473 143.825, 382.999 143.370, 382.994 141.119 C 382.986 137.153, 381.008 130.831, 378.808 127.735 C 375.254 122.735, 367.162 120.200, 360.275 121.928 M 309 123.132 C 307.075 123.696, 305.144 124.500, 304.709 124.919 C 304.071 125.534, 307.479 140.674, 308.512 141.816 C 308.669 141.989, 310.756 141.613, 313.149 140.979 C 322.114 138.604, 325.747 131.233, 320.750 125.555 C 318.118 122.563, 313.909 121.696, 309 123.132 M 391.287 149.741 C 389.011 164.998, 387.264 177.597, 387.406 177.739 C 387.548 177.881, 389.756 178.388, 392.312 178.866 L 396.959 179.734 397.480 176.617 C 398.515 170.428, 399.985 160.481, 399.992 159.615 C 399.997 159.128, 400.907 159.883, 402.016 161.293 C 406.124 166.516, 416.417 167.378, 423.370 163.080 C 428.662 159.810, 432.418 151.476, 432.389 143.069 C 432.364 135.633, 430.695 131.604, 426.006 127.659 C 420.676 123.173, 411.913 122.921, 406.601 127.099 L 404 129.145 404 126.198 C 404 123.696, 403.527 123.155, 400.875 122.625 C 399.156 122.281, 397.227 122, 396.588 122 C 395.834 122, 393.977 131.717, 391.287 149.741 M 361 129.273 C 358.718 130.408, 354.225 137.559, 355.189 138.523 C 355.414 138.747, 359.513 138.655, 364.299 138.317 C 372.013 137.773, 373 137.484, 373 135.775 C 373 133.321, 367.733 127.995, 365.327 128.015 C 364.322 128.023, 362.375 128.589, 361 129.273 M 406.716 134.009 C 404.113 136.056, 402 142.830, 402 149.126 C 402 152.995, 406.778 158, 410.473 158 C 417.389 158, 422 152.070, 422 143.176 C 422 136.331, 418.530 132, 413.046 132 C 410.778 132, 408.249 132.803, 406.716 134.009 M 441.728 151.537 L 435.182 170.874 439.761 172.434 C 442.279 173.292, 444.481 173.852, 444.655 173.679 C 444.828 173.505, 446.890 168.019, 449.237 161.487 C 452.978 151.074, 453.915 149.370, 456.837 147.663 C 459.624 146.036, 460.739 145.891, 463.639 146.781 C 466.889 147.779, 467.171 147.682, 468.098 145.243 C 470.273 139.520, 469.860 138.526, 465.168 138.189 C 462.457 137.994, 459.945 138.461, 458.454 139.439 C 455.196 141.573, 454.955 141.456, 455.246 137.876 C 455.472 135.102, 455.095 134.609, 451.887 133.476 L 448.273 132.199 441.728 151.537 M 480.176 149.138 C 478.348 149.665, 474.883 152.065, 472.476 154.471 C 467.354 159.594, 464.382 167.808, 465.472 173.834 C 467.015 182.372, 474.925 189.303, 484.500 190.508 C 488.757 191.043, 490.318 190.718, 495 188.318 C 509.198 181.043, 511.450 160.858, 498.984 152.608 C 492.643 148.412, 486.580 147.293, 480.176 149.138 M 259.137 152.369 C 253.811 154.297, 248.200 159.599, 246.902 163.933 C 245.911 167.240, 246.016 168.365, 247.621 171.644 C 250.306 177.131, 252.991 178.219, 262.162 177.537 C 268.365 177.076, 270.127 177.270, 271.412 178.555 C 273.252 180.395, 273.371 181.438, 272.029 183.945 C 270.965 185.935, 264.188 189, 260.855 189 C 259.018 189, 258.832 189.409, 259.394 192.219 C 259.748 193.989, 260.393 195.793, 260.828 196.228 C 262.053 197.453, 270.689 194.475, 274.630 191.468 C 281.486 186.239, 283.584 179.965, 280.483 173.967 C 277.971 169.110, 273.979 167.705, 264.957 168.504 C 257.710 169.145, 257.096 169.048, 256.052 167.096 C 254.344 163.905, 256.306 161.329, 261.980 159.314 C 266.477 157.716, 266.872 157.327, 266.325 155.028 C 265.233 150.438, 264.857 150.299, 259.137 152.369 M 485.445 156.959 C 482.398 158.193, 477.381 164.317, 476.007 168.479 C 471.684 181.577, 484.978 187.927, 493.325 176.751 C 499.031 169.111, 498.871 160.536, 492.966 157.483 C 489.775 155.832, 488.455 155.740, 485.445 156.959 M 216.655 170.385 C 213.763 174.177, 213.739 176.709, 216.572 179.060 C 217.881 180.146, 217.807 180.577, 215.975 182.527 L 213.883 184.753 216.347 187.617 C 218.748 190.409, 218.862 190.435, 220.825 188.658 C 222.805 186.866, 222.947 186.968, 229.170 194.663 C 239.635 207.604, 242.232 209.443, 248.387 208.266 C 251.225 207.724, 258.009 202.355, 257.978 200.677 C 257.966 200.030, 257.134 198.432, 256.131 197.127 C 254.366 194.833, 254.219 194.810, 251.711 196.454 C 247.353 199.309, 245.085 198.114, 237.703 189.075 L 230.822 180.649 234.661 177.390 L 238.500 174.131 235.777 171.365 L 233.055 168.600 230.777 170.651 C 226.631 174.386, 226.034 174.372, 222.657 170.466 L 219.436 166.740 216.655 170.385 M 550.946 182.710 C 543.760 190.977, 543.488 191.176, 543.167 188.388 C 542.746 184.744, 538.777 179.453, 534.998 177.499 C 531.187 175.528, 522.720 175.587, 518.700 177.612 C 507.589 183.208, 501.646 195.890, 505.768 205.208 C 508.445 211.261, 513.138 214.495, 519.247 214.498 C 521.858 214.499, 523.995 214.690, 523.997 214.921 C 523.999 215.153, 523.239 216.183, 522.309 217.211 C 520.705 218.983, 520.783 219.244, 523.805 222.266 C 526.968 225.430, 527.005 225.439, 528.868 223.476 C 532.944 219.185, 566 181.021, 566 180.608 C 566 180.366, 564.288 178.812, 562.196 177.155 L 558.393 174.143 550.946 182.710 M 189.215 182.278 L 186.038 185.556 206.797 206.297 L 227.556 227.039 231.317 223.188 L 235.078 219.336 214.150 199.168 C 202.640 188.076, 193.036 179, 192.807 179 C 192.579 179, 190.963 180.475, 189.215 182.278 M 521.839 187.463 C 517.230 190.595, 513.579 197.808, 514.494 201.974 C 515.731 207.605, 522.863 210.749, 528.074 207.961 C 529.142 207.389, 531.812 204.649, 534.008 201.871 C 538.947 195.622, 539.220 192.066, 535.077 187.923 C 531.371 184.217, 526.847 184.060, 521.839 187.463 M 552.377 216.446 C 540.650 225.309, 537 229.693, 537 234.918 C 537 241.717, 543.733 249, 550.019 249 L 553.349 249 551.031 251.467 L 548.713 253.935 551.344 257.384 L 553.975 260.834 569.987 248.825 C 578.794 242.221, 585.988 236.521, 585.973 236.158 C 585.958 235.796, 584.671 233.962, 583.112 232.083 L 580.279 228.665 576.889 231.039 C 575.025 232.344, 570.190 235.884, 566.145 238.906 C 557.350 245.476, 553.243 246.146, 549.370 241.644 C 544.762 236.286, 546.706 233.178, 561.308 222.558 L 570.853 215.616 568.177 211.829 C 566.705 209.747, 565.050 208.042, 564.500 208.042 C 563.950 208.042, 558.495 211.824, 552.377 216.446 M 185.340 213.620 L 182.579 217.241 185.133 219.370 C 186.537 220.542, 191.568 224.291, 196.312 227.703 C 205.219 234.108, 206.840 236.516, 205.593 241.487 C 204.724 244.950, 200.781 247.331, 197.215 246.547 C 195.638 246.201, 189.658 242.543, 183.924 238.419 L 173.500 230.921 170.750 234.173 C 169.238 235.961, 168 237.934, 168 238.556 C 168 239.677, 184.477 251.916, 190.418 255.208 C 194.190 257.299, 201.157 257.487, 204.810 255.598 C 209.055 253.403, 212.339 246.700, 211.746 241.442 L 211.255 237.080 213.916 238.456 C 216.456 239.770, 216.687 239.671, 219.015 236.273 L 221.454 232.713 219.013 231.107 C 217.670 230.223, 210.426 225.113, 202.915 219.750 C 195.404 214.387, 188.998 210, 188.680 210 C 188.362 210, 186.859 211.629, 185.340 213.620 M 158.760 255.729 C 152.615 262.145, 151.106 272.596, 155.560 277.889 C 158.270 281.110, 163.257 282.688, 166.985 281.505 C 168.172 281.128, 171.627 278.797, 174.663 276.324 C 180.591 271.496, 184.243 271.041, 185.493 274.976 C 186.263 277.404, 183.724 282.972, 180.438 286.058 L 177.989 288.359 180.169 290.680 C 183.107 293.807, 184.294 293.614, 187.433 289.500 C 191.280 284.456, 193 279.745, 193 274.255 C 193 268.818, 191.260 265.703, 186.989 263.494 C 181.257 260.530, 177.760 261.581, 169.747 268.677 C 165.503 272.435, 162.555 272.905, 161.035 270.065 C 159.778 267.716, 161.144 263.556, 164.267 260.223 L 166.400 257.945 163.907 255.452 L 161.414 252.959 158.760 255.729 M 574.459 257.367 C 560.645 263.800, 558.241 278.532, 568.826 291.890 C 570.712 294.270, 570.730 294.272, 573.860 292.424 C 577.207 290.446, 577.671 289.533, 575.887 288.430 C 575.274 288.052, 573.883 285.729, 572.795 283.269 C 570.176 277.348, 570.993 273.091, 575.510 269.126 C 583.918 261.743, 595.622 265.140, 597.572 275.529 C 598.120 278.455, 598.637 278.998, 600.861 278.985 C 605.454 278.958, 606.295 277.808, 605.064 273.236 C 603.372 266.954, 598.087 259.921, 593.093 257.307 C 587.342 254.297, 581.008 254.317, 574.459 257.367 M 147.500 292.349 C 139.228 296.147, 135.717 307.377, 139.913 316.616 C 144.189 326.032, 158.684 331.666, 168.298 327.649 C 175.555 324.617, 181 314.402, 181 303.818 L 181 299 177.500 299 C 174.328 299, 174 299.264, 174 301.818 C 174 306.493, 171.184 314.478, 168.720 316.793 C 167.446 317.990, 164.963 319.257, 163.202 319.610 C 159.105 320.429, 159.099 319.871, 163.057 305.106 C 165.234 296.985, 165.803 293.403, 165.038 292.638 C 163.363 290.963, 150.964 290.759, 147.500 292.349 M 588.764 291.996 C 575.686 295.933, 571.139 309.153, 577.896 323.591 C 579.545 327.116, 581.122 330, 581.400 330 C 582.599 330, 587 327.616, 587 326.967 C 587 326.575, 586.137 324.285, 585.082 321.877 C 583.226 317.641, 582.536 313.780, 582.849 309.386 C 583.020 306.985, 587.800 301.767, 589.354 302.285 C 589.917 302.472, 591.846 308.163, 593.640 314.930 C 595.434 321.698, 597.103 327.437, 597.350 327.683 C 598.195 328.528, 605.698 326.005, 609.045 323.749 C 613.778 320.559, 616.391 315.621, 616.307 310.027 C 616.233 305.146, 613.513 298.675, 610.320 295.788 C 605.650 291.565, 595.894 289.849, 588.764 291.996 M 147.073 302.635 C 145.933 304.084, 145 306.525, 145 308.058 C 145 311.033, 149.316 317, 151.467 317 C 152.228 317, 153.439 314.233, 154.422 310.250 C 155.338 306.538, 156.323 302.712, 156.611 301.750 C 157.049 300.288, 156.477 300, 153.140 300 C 150.015 300, 148.694 300.574, 147.073 302.635 M 597.197 301.096 C 597.488 301.868, 598.562 305.762, 599.584 309.750 C 600.607 313.738, 601.958 317, 602.587 317 C 603.216 317, 604.916 316.067, 606.365 314.927 C 609.559 312.415, 609.998 306.454, 607.240 303.048 C 605.124 300.435, 596.302 298.721, 597.197 301.096 M 594.764 335.996 C 586.985 338.338, 581 345.560, 581 352.604 C 581 356.037, 584.298 363.028, 586.499 364.259 C 588.809 365.552, 588.281 367, 585.500 367 C 583.197 367, 583 367.361, 583 371.585 L 583 376.171 590.250 375.565 C 599.244 374.814, 633.167 373.001, 638.250 373.001 L 642 373 642 367.847 L 642 362.694 630.454 363.313 L 618.909 363.932 620.954 361.331 C 623.415 358.203, 623.766 349.372, 621.595 345.200 C 617.283 336.912, 605.334 332.813, 594.764 335.996 M 123.420 337.886 C 118.133 341.110, 116.544 345.885, 116.170 359.668 L 115.840 371.836 121.170 372.393 C 127.515 373.056, 170.264 375.089, 170.547 374.742 C 170.655 374.609, 171.047 372.408, 171.418 369.852 L 172.092 365.203 160.431 364.474 L 148.770 363.746 149.256 358.686 C 149.855 352.452, 151.910 350.558, 159.781 348.988 C 173.433 346.265, 173 346.527, 173 340.961 C 173 338.233, 172.770 336, 172.489 336 C 172.209 336, 167.891 336.911, 162.894 338.024 C 153.070 340.212, 148.613 342.082, 147.199 344.609 C 146.449 345.949, 145.923 345.611, 144.053 342.585 C 142.817 340.587, 140.523 338.287, 138.953 337.476 C 134.934 335.397, 127.164 335.602, 123.420 337.886 M 596.500 346.347 C 589.471 349.580, 587.474 356.929, 592.311 361.766 C 597.225 366.680, 610.071 365.515, 614.336 359.769 C 616.023 357.495, 616.206 356.424, 615.431 353.365 C 614.910 351.311, 613.321 348.817, 611.824 347.706 C 608.454 345.205, 600.515 344.501, 596.500 346.347 M 126.099 348.601 C 123.880 351.422, 122.628 356.335, 123.163 360.119 C 123.485 362.392, 123.893 362.513, 132.198 362.788 L 140.895 363.076 141.547 359.603 C 142.361 355.261, 140.524 349.480, 137.701 347.503 C 134.168 345.028, 128.487 345.566, 126.099 348.601" stroke="none" fill="#0c347c" fill-rule="evenodd"/></svg>